<svg width="340" height="16" viewBox="0 0 340 16" fill="none" xmlns="http://www.w3.org/2000/svg">
<path d="M17 9.5L13.6206 13.0671C10.5668 16.2906 5.43321 16.2906 2.3794 13.0671C-2.2954 8.13263 1.2027 0 8 0H332C338.797 0 342.295 8.13263 337.621 13.0671C334.567 16.2906 329.433 16.2906 326.379 13.0671L323 9.5C318.11 4.33842 309.89 4.33842 305 9.5C300.11 14.6616 291.89 14.6616 287 9.5C282.11 4.33842 273.89 4.33842 269 9.5C264.11 14.6616 255.89 14.6616 251 9.5C246.11 4.33842 237.89 4.33842 233 9.5C228.11 14.6616 219.89 14.6616 215 9.5C210.11 4.33842 201.89 4.33842 197 9.5C192.11 14.6616 183.89 14.6616 179 9.5C174.11 4.33842 165.89 4.33842 161 9.5C156.11 14.6616 147.89 14.6616 143 9.5C138.11 4.33842 129.89 4.33842 125 9.5C120.11 14.6616 111.89 14.6616 107 9.5C102.11 4.33842 93.8899 4.33842 89 9.5C84.1101 14.6616 75.8899 14.6616 71 9.5C66.1101 4.33842 57.8899 4.33842 53 9.5C48.1101 14.6616 39.8899 14.6616 35 9.5C30.1101 4.33842 21.8899 4.33842 17 9.5Z" fill="white"/>
</svg>
