<svg width="305" height="102" viewBox="0 0 305 102" fill="none" xmlns="http://www.w3.org/2000/svg">
<path d="M32.7314 72.6978C35.5331 76.9232 36.6547 82.6836 34.5264 87.4144C30.275 97.272 18.8647 95.4155 13.3886 87.8247C7.88805 80.1411 3.56722 66.3882 8.13177 57.3417C10.2457 53.3095 14.3487 50.0436 19.0103 50.4031C23.3201 50.5575 27.1084 53.6292 27.1886 58.0757C27.2873 60.3331 24.3362 60.8133 23.197 59.1281C18.5909 52.2014 12.623 58.9374 12.2787 64.7865C11.9488 69.9368 13.6763 75.736 15.9017 80.4111C17.8629 84.4609 23.036 92.0323 27.9052 86.7774C29.9711 84.4457 29.9305 81.2794 28.9179 78.568C28.6976 77.7325 28.3161 77.0388 27.8174 76.2768C27.7001 76.2084 27.6511 76.0228 27.6267 75.93C26.4393 75.9452 23.6891 77.5638 22.9026 77.9697C19.1068 79.7647 15.9818 73.9368 19.6654 72.4692C23.9498 70.6447 29.4553 67.8033 32.7314 72.6978Z" fill="#FF531F"/>
<path d="M65.6969 85.8063C67.0935 88.1916 63.8187 90.6228 61.7051 89.1442C59.7026 87.7434 58.6732 85.7806 57.1544 83.8069C55.6189 81.7386 53.7387 79.9263 51.8585 78.1139C51.3968 77.7081 50.8239 77.2244 50.2175 76.5517C51.3143 80.5498 52.3165 84.5647 52.2287 88.4797C52.2015 90.5318 49.0709 91.5727 47.8859 89.8324C44.2973 84.4225 43.1828 77.0154 41.7017 70.843C40.0702 63.8198 38.5164 56.6853 37.3576 49.5786C37.04 47.7824 38.2241 46.2083 39.909 45.8129C46.682 44.4206 54.3465 48.6225 55.789 55.6791C56.8194 60.9563 54.0852 66.9965 49.4535 69.4726C55.0774 74.8152 61.5574 78.934 65.6969 85.8063ZM49.65 57.3493C49.4156 54.3686 47.046 52.5453 44.3264 52.0512C45.0894 55.8158 45.9303 59.4692 46.7878 63.2172C48.5892 61.8263 49.9289 60.0297 49.65 57.3493Z" fill="#FF531F"/>
<path d="M93.2643 76.2561C95.9453 75.1825 98.6417 78.5508 96.6829 80.8959C90.2245 88.7691 78.0164 83.2801 73.9057 75.9165C71.3778 71.4666 70.715 66.421 71.1124 61.3531C71.5098 56.2852 72.8496 50.1455 75.3468 45.7115C77.3679 42.2002 81.2132 39.4503 85.4547 40.2302C89.8976 41.0842 92.6484 45.7989 93.3102 49.9751C94.7827 58.7939 86.0123 65.8639 77.6277 66.9013C77.98 69.1802 78.8093 71.4056 80.1789 73.2806C83.6297 78.2065 88.1564 78.0851 93.2643 76.2561ZM78.1996 56.5006C77.9571 57.7837 77.7254 59.1621 77.589 60.5298C82.0506 58.9666 86.7536 55.2511 86.3459 50.7565C86.2389 49.8025 85.982 47.5129 85.1331 46.8353C83.4461 45.5755 81.9528 46.9023 81.0318 48.1649C79.3593 50.4778 78.7692 53.8285 78.1996 56.5006Z" fill="#FF531F"/>
<path d="M127.563 74.3965C131.332 78.1255 125.906 84.2018 122.234 80.4674C118.875 77.1959 115.427 74.0257 111.712 71.2552C111.81 72.9805 111.907 74.7057 112.096 76.3297C112.372 81.2178 104.896 81.641 104.524 76.7582C103.542 64.5061 101.084 51.6645 102.216 39.3889C102.459 36.8752 106.032 37.1537 106.721 39.1339C108.435 43.9407 109.501 49.1689 110.278 54.4133C110.969 53.0281 111.66 51.6428 112.249 50.1672C113.768 46.4273 114.599 40.7073 117.711 37.935C118.988 36.7089 121.48 36.5678 122.089 38.841C123.196 43.1053 120.687 48.055 119.185 52.0823C118.266 54.5382 117.251 56.9994 116.136 59.3703C115.62 60.4571 115.105 61.544 114.589 62.6309C114.499 62.7321 114.244 63.3235 114.085 63.9094C115.993 65.3399 118.268 66.4611 120.176 67.8916C122.787 69.8592 125.223 72.1251 127.563 74.3965Z" fill="#FF531F"/>
<path d="M185.152 69.5711C188.342 69.0134 191.412 71.8135 190.331 75.1368C188.494 80.8345 181.069 78.9344 176.56 78.7723C172.243 78.6171 165.774 79.5372 164.428 74.2054C163.086 68.7777 163.41 62.4492 163.13 56.8676C162.673 50.8953 162.606 44.7449 161.764 38.7588C161.302 35.5721 165.565 34.5727 166.606 37.6841C168.606 43.5197 169.941 49.1393 170.58 55.4063C170.853 58.4901 171.123 61.6699 171.489 64.8531C171.537 66.1997 171.45 68.5981 171.768 70.4348C173.972 70.61 176.384 70.3125 178.31 70.1896C180.619 70.0806 182.928 69.9715 185.152 69.5711Z" fill="#FF531F"/>
<path d="M225.18 41.1392C229.302 45.3953 227.993 53.9491 227.494 59.1091C226.719 67.1357 224.988 75.07 222.606 82.7486C221.765 85.4643 218.489 85.4371 216.812 83.8284C211.957 86.1564 206.412 87.6461 201.98 84.6137C197.451 81.5721 196.168 74.8898 198.836 70.2288C201.961 64.8403 209.158 63.2209 214.707 65.6859C216.371 66.4254 217.817 67.4331 218.948 68.6998C220.094 62.8307 220.867 56.8292 221.257 50.7908C221.393 48.3927 221.861 45.5445 218.954 44.685C217.262 44.2321 215.085 44.7935 213.483 45.4102C209.877 46.7979 207.155 50.0071 205.84 53.6414C205.008 56.2615 200.859 55.282 201.213 52.6157C202.044 47.0057 205.277 42.4956 210.436 40.0042C214.89 37.8304 221.403 37.3023 225.18 41.1392ZM203.778 73.9854C201.852 77.9466 205.388 81.278 209.312 80.5962C211.565 80.2352 213.778 79.2916 215.905 78.2433C215.581 75.6079 214.387 72.985 211.9 71.7802C209.23 70.4614 205.22 71.0384 203.778 73.9854Z" fill="#FF531F"/>
<path d="M258.587 44.4894C260.053 40.354 266.982 42.577 265.91 46.6807C262.285 59.7023 259.401 72.9446 255.412 85.8085C254.372 89.1389 249.037 88.4463 248.057 85.5584C245.941 79.5619 243.698 73.7389 242.401 67.4896C242.18 66.4796 241.975 65.3749 241.753 64.3649C241.501 65.2961 241.233 66.3221 241.06 67.3638C239.752 72.888 239.233 78.9328 237.009 84.1101C236.032 86.4778 232.764 85.6424 232.369 83.3383C231.404 77.436 233.044 70.5071 234.399 64.6987C235.817 58.5116 237.599 52.4822 239.664 46.5C240.941 42.917 245.945 44.4305 246.388 47.6183C247.511 54.9094 248.303 63.0212 250.373 70.4698C252.611 61.6941 255.543 52.8393 258.587 44.4894Z" fill="#FF531F"/>
<path d="M292.087 94.6202C292.172 99.6041 284.418 99.6586 284.333 94.6747C284.326 93.1844 284.319 91.6941 284.429 90.1352C281.043 93.2182 276.579 94.7292 272.021 92.048C265.219 88.0846 265.67 78.7757 270.016 73.1652C273.465 68.7091 282.291 62.2864 288.023 66.1681C289.419 61.9689 290.654 57.6282 292.721 53.902C294.028 51.5646 296.946 52.9239 297.179 55.0687C297.179 55.0687 297.179 55.0687 297.272 55.093C297.223 55.2787 297.199 55.3716 297.15 55.5573C297.126 55.6502 297.126 55.6502 297.195 55.7674C295.282 68.7626 291.815 81.2517 292.087 94.6202ZM274.431 78.2898C271.462 83.5661 276.328 89.9996 280.977 84.3692C283.831 81.0476 285.006 75.7981 286.359 71.3889C283.935 71.5485 282.025 71.6439 279.681 73.0153C277.641 74.3667 275.571 76.2067 274.431 78.2898Z" fill="#FF531F"/>
<path d="M46.3607 24.7254C46.7361 26.4449 47.5877 28.4698 47.3123 30.2086C47.0872 31.2404 45.9539 31.4878 45.3583 30.6352C44.5858 29.5347 44.3702 27.985 44.1412 26.5611C43.6332 26.672 43.1337 26.822 42.6647 26.9244C42.556 26.9891 42.4388 27.0147 42.3606 27.0318C41.0881 27.3915 39.7764 27.7598 38.521 28.1977C37.9127 28.4124 37.3045 28.6271 36.6963 28.8418C36.1578 29.0003 35.1943 29.0878 34.8717 29.4858C34.4724 29.5321 34.4589 29.6578 34.7141 29.8887C34.7567 30.0841 34.7994 30.2795 34.8421 30.4749C35.0091 31.0526 35.059 31.6558 35.187 32.242C35.3441 33.1494 34.1583 33.5311 33.7055 32.7702C33.0673 31.7222 32.2961 30.2529 32.47 28.9867C32.6524 27.7595 34.0116 27.4218 34.985 27.0045C35.2415 26.8666 35.4675 26.7764 35.7325 26.6775C33.8177 23.5336 33.2003 19.2057 32.5972 15.6935C32.5253 15.177 32.749 14.514 33.2706 14.2773C35.2173 13.4428 38.9142 12.1852 39.9719 14.7793C41.1711 17.8338 42.0051 21.0909 42.9478 24.2832C43.5645 24.1076 44.2204 23.9235 44.8456 23.787C45.5405 23.5943 46.2242 24.1001 46.3607 24.7254ZM37.4313 26.02C38.4132 25.6418 39.4037 25.3027 40.4027 25.0027C39.9698 23.5824 39.5368 22.1621 39.0953 20.7026C38.6368 19.1651 38.3139 17.3113 37.6208 15.8249C36.9138 15.7746 36.0541 15.9623 35.3286 16.2026C35.6174 17.9001 35.9843 19.5805 36.3427 21.2218C36.7316 22.8155 37.2378 24.3836 37.4313 26.02Z" fill="#FF751F"/>
<path d="M60.5817 19.1514C61.0619 21.1787 61.4218 23.6742 60.8895 25.7181C59.7206 29.9055 54.6484 29.7054 52.2909 26.7101C50.9395 25.0398 50.1811 22.8179 49.7333 20.7442C49.2576 18.513 48.9023 15.8136 49.7752 13.6283C50.449 11.925 52.0798 10.5805 53.9753 10.7329C55.0875 10.8206 56.244 11.388 57.0807 12.2149C57.2916 12.2589 57.5164 12.3816 57.7227 12.6295C59.2525 14.3901 60.0666 16.9271 60.5817 19.1514ZM58.1495 21.9373C57.8381 19.0271 56.5792 16.7312 55.501 14.0784C55.494 14.039 55.487 13.9996 55.4801 13.9602C54.8914 13.6175 54.3028 13.2747 53.6401 13.4325C52.0645 13.711 52.0119 15.7107 52.0702 16.9596C52.1289 19.5896 52.788 23.0882 54.6029 25.0827C55.3539 25.8842 56.9206 26.704 57.817 25.5707C58.5257 24.7548 58.2379 22.8966 58.1495 21.9373Z" fill="#FF751F"/>
<path d="M73.599 17.4426C75.4794 18.7062 76.6666 21.3231 75.6015 23.4578C74.5816 25.6263 71.0818 26.5775 68.8753 26.4119C68.4623 26.3505 68.1393 26.0739 67.9632 25.6952C66.5974 24.3571 66.6224 22.5751 66.24 20.7713C65.7774 18.4133 65.0376 16.0953 64.0661 13.8514C63.5207 12.5966 62.0064 10.512 63.5316 9.32122C64.2545 8.73155 65.55 8.7461 66.4209 8.62002C67.5632 8.41423 68.694 8.12927 69.8879 8.27977C70.912 8.37402 70.9881 9.73719 70.1573 10.1404C69.3661 10.5378 68.58 10.692 67.7149 10.8577C67.4831 10.9317 66.2048 11.0359 65.5375 11.1729C65.8392 12.1397 66.4294 13.1455 66.7138 13.9935C67.1118 15.0675 67.4249 16.1135 67.7041 17.2047C67.7723 17.3969 67.801 17.5949 67.8692 17.7871C67.9088 17.7814 67.9427 17.736 67.9765 17.6907C69.3933 16.0306 71.9451 16.3483 73.599 17.4426ZM72.636 22.7958C73.9976 21.8712 73.3438 20.1471 72.2109 19.3007C70.6758 18.1891 69.1949 18.8481 69.1814 20.7092C69.2059 21.7161 69.3492 22.7058 69.4982 23.7351C70.5556 23.5011 71.7094 23.3745 72.636 22.7958Z" fill="#FF751F"/>
<path d="M86.2819 11.7044C86.6001 14.0432 85.1052 16.7183 82.8534 17.429C83.354 19.9475 84.2452 22.7016 84.0215 25.2256C83.9617 26.0786 82.6395 26.4774 82.1829 25.6857C80.8178 23.3505 80.5339 20.2826 80.0588 17.6402C79.5459 14.68 79.0681 11.6754 78.7538 8.69163C78.6641 7.93694 79.1939 7.31005 79.9089 7.2251C82.7546 6.76613 85.8438 8.69511 86.2819 11.7044ZM83.6839 12.2145C83.6568 10.969 82.7141 10.1546 81.5992 9.92452C81.8229 11.4689 82.0912 13.0483 82.3547 14.588C83.1369 14.0519 83.7414 13.3759 83.6839 12.2145Z" fill="#FF751F"/>
<path d="M101.543 14.0776C101.86 16.1368 102.019 18.653 101.325 20.6479C99.8259 24.7286 94.7858 24.1242 92.6751 20.9501C91.4614 19.1773 90.8828 16.902 90.602 14.7991C90.306 12.537 90.1673 9.81789 91.2119 7.70924C92.0196 6.06518 93.7526 4.85526 95.6298 5.15848C96.7315 5.33472 97.8389 5.9926 98.607 6.88373C98.8137 6.94439 99.0279 7.08469 99.2138 7.34824C100.598 9.22534 101.207 11.8193 101.543 14.0776ZM98.8961 16.6604C98.8181 13.7346 97.7465 11.3455 96.8835 8.6151C96.8797 8.57528 96.8759 8.53546 96.8721 8.49565C96.3127 8.10698 95.7533 7.71831 95.0802 7.82266C93.4874 7.9745 93.2752 9.96361 93.2336 11.2132C93.0821 13.8394 93.4598 17.3796 95.1097 19.5126C95.7943 20.3715 97.2904 21.3138 98.2745 20.2556C99.0461 19.499 98.9075 17.6237 98.8961 16.6604Z" fill="#FF751F"/>
<path d="M125.333 21.5947C125.617 23.1013 123.039 23.5645 122.757 22.0979C122.165 19.3664 121.655 16.6705 121.143 13.9346C120.904 12.5056 120.627 11.1188 120.348 9.69211C120.166 8.58046 120.055 7.30463 119.751 6.15967C118.988 6.12181 117.353 6.25243 116.483 6.46084C116.492 7.34171 116.793 8.44672 116.833 9.16562C116.944 10.4415 117.055 11.7173 117.165 12.9931C117.387 15.5448 117.648 18.0942 117.59 20.6614C117.579 21.9039 115.568 22.496 115.291 21.1092C114.555 17.2239 114.336 13.27 113.997 9.32265C113.885 8.00688 113.286 5.87672 114.063 4.71199C114.877 3.50511 116.774 3.76061 118.015 3.73199C119.213 3.66564 121.07 3.20225 121.895 4.35839C122.805 5.58999 122.822 8.07283 123.103 9.53951C123.886 13.5424 124.671 17.5852 125.333 21.5947Z" fill="#FF751F"/>
<path d="M139.75 11.9853C139.937 14.0603 139.939 16.5816 139.121 18.529C137.369 22.5078 132.377 21.5887 130.469 18.2886C129.369 16.4432 128.934 14.136 128.785 12.0197C128.632 9.74352 128.664 7.02106 129.838 4.98202C130.748 3.3918 132.553 2.29287 134.408 2.71314C135.496 2.95808 136.56 3.68406 137.271 4.62158C137.473 4.69507 137.678 4.84852 137.847 5.12321C139.111 7.08337 139.556 9.71035 139.75 11.9853ZM136.947 14.3972C137.052 11.4722 136.132 9.02068 135.442 6.24154C135.441 6.20156 135.44 6.16158 135.438 6.1216C134.904 5.69864 134.37 5.27568 133.692 5.33764C132.093 5.38936 131.756 7.36127 131.637 8.60579C131.321 11.2174 131.476 14.7742 132.989 17.0065C133.618 17.9066 135.052 18.9408 136.101 17.9464C136.918 17.2396 136.898 15.3593 136.947 14.3972Z" fill="#FF751F"/>
<path d="M159.598 17.1714C160.567 18.6457 158.215 20.0597 157.206 18.5857C156.318 17.191 155.429 15.7963 154.621 14.3611C154.459 14.0821 154.257 13.7633 154.055 13.4045C154.145 15.124 154.196 16.8437 154.126 18.5642C154.095 20.1244 151.855 20.0978 151.726 18.5785C151.597 17.0192 151.507 15.4197 151.418 13.8603C151.339 14.0607 151.26 14.2612 151.182 14.5017C150.672 16.2248 150.242 17.9873 149.933 19.7892C149.623 21.4311 147.219 20.7255 147.449 19.1241C147.72 17.5224 148.07 15.9603 148.541 14.3975C148.776 13.636 149.172 12.8737 149.327 12.1127C149.561 11.0713 149.359 10.7125 148.674 9.95657C146.822 7.92761 145.171 6.01744 144.315 3.38251C143.908 2.18492 145.823 1.37346 146.35 2.53033C146.39 2.61009 146.431 2.68985 146.471 2.76961C147.082 4.52599 148.171 5.95951 149.458 7.27184C149.982 7.82872 150.585 8.34513 151.068 8.94225C150.855 6.74349 150.602 4.58496 150.669 2.42452C150.703 1.3843 152.223 1.29522 152.388 2.25424C152.918 3.77111 153.207 5.36941 153.417 7.00818C153.457 6.96794 153.456 6.92795 153.496 6.88771C154.288 5.48295 155.039 4.03844 155.992 2.75272C156.547 1.98939 158.029 2.38054 157.676 3.46267C157.203 4.66552 156.61 5.78908 156.017 6.95265C155.384 8.23645 154.669 9.04074 155.277 10.3971C156.331 12.7909 158.105 15.0203 159.598 17.1714Z" fill="#FF751F"/>
<path d="M173.739 2.46182C175.586 4.09971 175.313 7.6949 175.269 9.89445C175.201 13.2138 174.733 16.5649 173.986 19.8304C173.723 20.9853 172.361 21.0776 171.613 20.4623C169.669 21.623 167.413 22.3773 165.475 21.2577C163.498 20.1373 162.753 17.4016 163.715 15.3807C164.842 13.0831 167.781 12.1427 170.164 12.9913C170.879 13.2459 171.512 13.6189 172.022 14.1093C172.313 11.6347 172.444 9.11686 172.415 6.59576C172.395 5.59515 172.5 4.39702 171.264 4.17186C170.547 3.99725 169.661 4.2993 169.015 4.60622C167.56 5.2968 166.531 6.75616 166.099 8.30771C165.837 9.38261 164.082 9.10687 164.145 7.98792C164.313 5.63085 165.513 3.69483 167.578 2.45657C169.36 1.41257 172.049 0.987154 173.739 2.46182ZM165.886 16.7851C165.212 18.4918 166.786 19.764 168.394 19.3967C169.319 19.1354 170.209 18.6734 171.059 18.2106C170.841 17.0859 170.262 16.0739 169.191 15.6121C168.04 15.1486 166.392 15.5552 165.886 16.7851Z" fill="#FF751F"/>
<path d="M187.77 19.7557C187.908 21.2428 185.377 21.4568 185.158 20.0063C184.556 16.2178 184.118 12.356 183.678 8.53413C183.316 9.51982 182.993 10.5472 182.709 11.5762C181.966 14.0271 181.733 16.6997 180.872 19.1057C180.418 20.3678 178.797 19.8993 178.687 18.6937C178.436 16.0808 179.368 12.9572 180.115 10.4263C180.949 7.73891 182.019 5.14152 183.285 2.63245C183.767 1.65179 185.555 1.96711 185.709 3.05455C186.355 8.64658 187.244 14.1688 187.77 19.7557Z" fill="#FF751F"/>
<path d="M202.466 13.4242C202.453 15.5076 202.212 18.0174 201.212 19.8773C199.085 23.6693 194.204 22.2748 192.622 18.8068C191.705 16.8642 191.493 14.526 191.549 12.4052C191.615 10.1248 191.908 7.41796 193.273 5.50119C194.331 4.00566 196.233 3.08523 198.039 3.68171C199.099 4.03008 200.088 4.85492 200.706 5.85637C200.9 5.94897 201.09 6.12141 201.231 6.41106C202.301 8.48358 202.492 11.1412 202.466 13.4242ZM199.444 15.5556C199.83 12.6543 199.15 10.1258 198.73 7.29318C198.732 7.25326 198.735 7.21334 198.738 7.17342C198.247 6.70113 197.756 6.22883 197.075 6.22534C195.478 6.1232 194.954 8.05367 194.715 9.28093C194.15 11.8501 193.962 15.4054 195.254 17.7727C195.794 18.7291 197.122 19.8962 198.261 19.0071C199.143 18.3822 199.303 16.5085 199.444 15.5556Z" fill="#FF751F"/>
<path d="M215.321 15.5038C216.377 18.5678 215.227 22.5225 212.069 23.7313C208.409 25.1771 206.265 21.6965 206.389 18.4549C206.491 16.3759 206.839 14.2381 207.06 12.1695C207.336 9.94509 207.847 7.78145 208.278 5.61082C208.252 5.44794 208.306 5.29204 208.36 5.13615C208.289 4.56781 208.58 3.99107 209.308 3.93442C211.86 3.67638 214.176 5.20447 214.427 7.83646C214.577 9.33526 213.785 11.0326 212.549 11.8478C213.827 12.8432 214.867 14.2595 215.321 15.5038ZM211.426 8.17561C211.402 7.53106 211.002 7.05431 210.469 6.72646C210.551 7.61708 210.46 8.6531 210.34 9.56609C210.89 9.25289 211.479 8.94318 211.426 8.17561ZM210.989 20.9462C212.023 20.5953 212.62 19.2824 212.711 18.2464C212.842 17.2138 212.494 16.1394 211.843 15.3194C211.447 14.8028 210.633 14.0087 209.843 13.8591C209.66 15.4893 209.437 17.1161 209.377 18.7169C209.366 19.76 209.541 21.4216 210.989 20.9462Z" fill="#FF751F"/>
<path d="M230.274 6.47641C231.964 8.27606 231.364 11.8313 231.118 14.0176C230.748 17.3169 229.976 20.6113 228.934 23.7951C228.567 24.9211 227.202 24.8887 226.513 24.2077C224.471 25.1861 222.156 25.7314 220.329 24.4396C218.462 23.1433 217.97 20.3511 219.112 18.4264C220.444 16.2412 223.457 15.5731 225.753 16.6357C226.442 16.9545 227.037 17.3836 227.501 17.9186C228.016 15.4808 228.376 12.9854 228.578 10.4722C228.649 9.47399 228.863 8.29039 227.653 7.95338C226.955 7.71409 226.045 7.93398 225.373 8.18062C223.862 8.73557 222.703 10.0948 222.132 11.6005C221.773 12.647 220.051 12.2123 220.215 11.1037C220.598 8.77181 221.969 6.95338 224.139 5.90882C226.008 5.0318 228.725 4.85361 230.274 6.47641ZM221.146 20.0232C220.319 21.6611 221.77 23.0718 223.405 22.8527C224.35 22.677 225.279 22.2981 226.167 21.9147C226.053 20.775 225.568 19.7143 224.544 19.1566C223.441 18.59 221.762 18.8444 221.146 20.0232Z" fill="#FF751F"/>
<path d="M246.268 9.95702C247.909 10.3516 247.537 12.9654 245.897 12.5708C244.918 12.351 243.939 12.1313 242.96 11.9115C243.206 14.4512 242.818 17.1838 242.627 19.6617C242.476 21.2967 242.212 22.8752 241.981 24.4989C241.75 25.8397 241.734 26.8071 240.711 27.7527C240.157 28.2396 239.405 27.85 239.082 27.2789C238.441 26.0972 238.955 24.7561 239.14 23.4492C239.354 21.9443 239.528 20.4337 239.747 18.8892C240.13 16.4791 240.258 13.8711 240.844 11.4495C239.316 11.1114 237.789 10.7733 236.267 10.3956C235.016 10.0969 235.23 8.30916 236.553 8.37589C239.84 8.55971 243.06 9.21876 246.268 9.95702Z" fill="#FF751F"/>
<path d="M257.501 20.0826C258.789 21.5626 258.711 23.66 257.664 25.2654C256.45 27.1264 254.104 28.0211 251.909 27.8053C251.271 27.7361 250.952 27.2346 250.955 26.7479C250.416 26.574 249.979 26.0521 250.022 25.329C250.207 20.2467 250.17 15.0449 250.954 10.025C251.077 9.07217 252.523 9.15896 252.604 10.1063C252.89 13.1592 252.879 16.2828 252.79 19.3928C252.797 19.3533 252.843 19.3207 252.889 19.2881C254.394 18.3296 256.344 18.7874 257.501 20.0826ZM255.183 24.351C255.949 23.6712 256.502 22.3459 255.626 21.5454C253.839 19.8983 252.977 23.7274 252.666 25.2974C253.58 25.1708 254.463 24.9981 255.183 24.351Z" fill="#FF751F"/>
<path d="M281.634 26.2313C282.251 29.4131 280.558 33.1675 277.262 33.9216C273.435 34.8399 271.8 31.093 272.377 27.9008C272.769 25.8566 273.414 23.7887 273.923 21.7717C274.508 19.6078 275.317 17.5372 276.048 15.4485C276.046 15.2836 276.121 15.1368 276.196 14.99C276.206 14.4173 276.575 13.8872 277.304 13.9331C279.867 14.0355 281.945 15.8731 281.825 18.5143C281.763 20.0193 280.741 21.5889 279.403 22.2228C280.529 23.3875 281.36 24.9357 281.634 26.2313ZM278.806 18.4293C278.873 17.7878 278.543 17.2597 278.061 16.8603C278.018 17.7537 277.783 18.7667 277.536 19.6538C278.124 19.4208 278.751 19.1968 278.806 18.4293ZM276.582 31.0125C277.656 30.81 278.431 29.5938 278.666 28.5808C278.94 27.5768 278.747 26.4642 278.217 25.5611C277.897 24.994 277.203 24.0936 276.442 23.8348C276.032 25.4232 275.583 27.0026 275.299 28.5793C275.142 29.6104 275.083 31.2803 276.582 31.0125Z" fill="#FF751F"/>
</svg>
